<svg width="1920" height="889" viewBox="0 0 1920 889" fill="none" xmlns="http://www.w3.org/2000/svg">
<path d="M3677.93 457.771C3152.18 924.507 2637.61 110.665 2241.89 105.839C1671.62 98.8834 1557.58 905.024 1263.48 565.583C969.401 226.178 693.771 -68.6545 453.449 518.42C213.127 1105.49 -35.3701 817.653 -35.3701 817.653" stroke="white" stroke-opacity="0.1" stroke-width="0.6687" stroke-miterlimit="10"/>
<path d="M-35.4599 807.326C-32.1358 805.516 222.71 1100.49 463.691 522.288C704.672 -55.8789 973.952 217.909 1268.42 552.595C1563.42 887.351 1679.23 112.191 2252.23 117.763C2649.17 121.702 3157.27 902.895 3676.16 439.744" stroke="white" stroke-opacity="0.1" stroke-width="0.6738" stroke-miterlimit="10"/>
<path d="M-35.5497 796.999C-28.9016 793.379 232.293 1095.42 473.933 526.156C715.573 -43.1033 978.504 209.641 1273.33 539.606C1569.23 869.678 1686.77 125.535 2262.53 129.687C2660.7 132.739 3162.3 881.247 3674.39 421.68" stroke="white" stroke-opacity="0.1" stroke-width="0.679" stroke-miterlimit="10"/>
<path d="M-35.6396 786.672C-25.6673 781.242 241.906 1090.38 484.175 530.024C726.443 -30.3277 983.056 201.372 1278.24 526.618C1575.04 852.041 1694.35 138.878 2272.86 141.611C2672.26 143.74 3167.4 859.564 3672.63 403.652" stroke="white" stroke-opacity="0.1" stroke-width="0.6841" stroke-miterlimit="10"/>
<path d="M-35.7294 776.31C-22.4331 769.106 251.489 1085.27 494.416 533.857C737.344 -17.5521 987.608 193.068 1283.15 513.629C1580.88 834.403 1701.9 152.186 2283.16 153.57C2683.82 154.812 3172.43 837.952 3670.83 385.66" stroke="white" stroke-opacity="0.1" stroke-width="0.6893" stroke-miterlimit="10"/>
<path d="M-35.8192 765.983C-19.1988 756.969 261.072 1080.23 504.658 537.725C748.244 -4.77655 991.621 185.545 1288.06 500.641C1586.12 817.476 1709.44 165.529 2293.46 165.494C2695.35 165.849 3177.49 816.304 3669.06 367.632" stroke="white" stroke-opacity="0.1" stroke-width="0.6944" stroke-miterlimit="10"/>
<path d="M-35.9091 755.656C-15.9346 744.832 270.655 1075.19 514.9 541.593C759.145 7.99911 996.083 177.418 1293 487.652C1591.87 799.945 1717.05 178.873 2303.79 177.418C2706.91 176.886 3182.55 794.657 3667.3 349.569" stroke="white" stroke-opacity="0.1" stroke-width="0.6996" stroke-miterlimit="10"/>
<path d="M-35.9989 745.329C-12.7004 732.695 280.268 1070.11 525.142 545.461C770.016 20.81 1000.55 169.291 1297.92 474.663C1597.59 782.449 1724.6 192.181 2314.1 189.342C2718.44 187.887 3187.61 773.009 3665.53 331.541" stroke="white" stroke-opacity="0.1" stroke-width="0.7047" stroke-miterlimit="10"/>
<path d="M-36.0887 735.002C-9.46616 720.558 289.851 1065.07 535.384 549.33C780.916 33.586 1005.04 161.165 1302.83 461.675C1603.34 764.954 1732.17 205.524 2324.43 201.301C2730.03 198.959 3192.7 751.397 3663.76 313.549" stroke="white" stroke-opacity="0.1" stroke-width="0.7099" stroke-miterlimit="10"/>
<path d="M-36.1487 724.675C-6.20202 708.422 299.464 1060.03 545.655 553.198C791.847 46.3615 1009.53 153.038 1307.77 448.722C1609.09 747.458 1739.75 218.903 2334.73 213.261C2741.55 210.031 3197.73 729.785 3661.99 295.521" stroke="white" stroke-opacity="0.1" stroke-width="0.715" stroke-miterlimit="10"/>
<path d="M-36.2385 714.312C-2.96772 696.249 309.077 1054.92 555.897 557.031C802.747 59.1369 1014.02 144.875 1312.68 435.698C1614.84 729.927 1747.33 232.175 2345.06 225.149C2753.11 221.032 3202.82 708.102 3660.23 277.458" stroke="white" stroke-opacity="0.1" stroke-width="0.7201" stroke-miterlimit="10"/>
<path d="M-36.3283 703.985C0.266518 684.112 318.659 1049.88 566.139 560.899C813.618 71.9124 1018.51 136.749 1317.59 422.709C1620.56 712.396 1754.87 245.519 2355.36 237.108C2764.64 232.104 3207.85 686.49 3658.46 259.465" stroke="white" stroke-opacity="0.1" stroke-width="0.7253" stroke-miterlimit="10"/>
<path d="M-36.4182 693.659C3.50076 672.011 328.242 1044.81 576.381 564.767C824.519 84.6881 1022.98 128.586 1322.53 409.721C1626.34 694.865 1762.45 258.862 2365.69 249.032C2776.2 243.106 3212.95 664.807 3656.69 241.438" stroke="white" stroke-opacity="0.1" stroke-width="0.7304" stroke-miterlimit="10"/>
<path d="M-36.508 683.332C6.73499 659.874 337.855 1039.77 586.622 568.635C835.389 97.4992 1027.5 120.46 1327.44 396.768C1632.09 677.405 1770.02 272.206 2376 260.992C2787.76 254.178 3217.98 643.195 3654.9 223.41" stroke="white" stroke-opacity="0.1" stroke-width="0.7356" stroke-miterlimit="10"/>
<path d="M-36.5978 673.005C9.96923 647.738 347.438 1034.73 596.864 572.503C846.29 110.275 1031.99 112.333 1332.35 383.779C1637.87 659.874 1777.57 285.549 2386.3 272.915C2799.29 265.215 3223.04 621.548 3653.13 205.382" stroke="white" stroke-opacity="0.1" stroke-width="0.7407" stroke-miterlimit="10"/>
<path d="M-36.6877 662.642C13.2035 635.565 357.021 1029.62 607.106 576.336C857.19 123.051 1036.48 104.136 1337.27 370.755C1643.62 642.308 1785.15 298.857 2396.6 284.839C2810.82 276.251 3228.1 599.9 3651.33 187.354" stroke="white" stroke-opacity="0.1" stroke-width="0.7459" stroke-miterlimit="10"/>
<path d="M-36.7775 652.315C16.4377 623.428 366.604 1024.58 617.348 580.204C868.091 135.826 1041 95.9734 1342.18 357.767C1649.37 624.777 1792.69 312.165 2406.93 296.763C2822.38 287.253 3233.16 578.252 3649.6 169.327" stroke="white" stroke-opacity="0.1" stroke-width="0.751" stroke-miterlimit="10"/>
<path d="M-36.8674 641.988C19.6719 611.292 376.217 1019.54 627.589 584.072C878.962 148.602 1045.5 87.8465 1347.09 344.778C1655.15 607.246 1800.24 325.508 2417.23 308.687C2833.94 298.289 3238.22 556.605 3647.8 151.263" stroke="white" stroke-opacity="0.1" stroke-width="0.7562" stroke-miterlimit="10"/>
<path d="M-36.9572 631.661C22.9062 599.155 385.8 1014.47 637.831 587.941C889.862 161.413 1050.02 79.6845 1352.03 331.825C1660.96 589.75 1807.85 338.887 2427.56 320.647C2845.5 309.361 3243.28 534.993 3646.06 133.271" stroke="white" stroke-opacity="0.1" stroke-width="0.7613" stroke-miterlimit="10"/>
<path d="M-37.0171 621.335C26.2003 587.053 395.413 1009.43 648.103 591.809C900.793 174.188 1054.57 71.5222 1356.97 318.837C1666.77 572.219 1815.42 352.231 2437.9 332.606C2857.06 320.434 3248.37 513.381 3644.3 115.279" stroke="white" stroke-opacity="0.1" stroke-width="0.7664" stroke-miterlimit="10"/>
<path d="M-37.1069 611.008C29.4346 574.917 405.026 1004.35 658.344 595.677C911.693 186.964 1059.12 63.3601 1361.88 305.848C1672.55 554.653 1823 365.539 2448.2 344.53C2868.59 331.435 3253.4 491.733 3642.53 97.251" stroke="white" stroke-opacity="0.1" stroke-width="0.7716" stroke-miterlimit="10"/>
<path d="M-37.1968 600.645C32.6688 562.744 414.609 999.28 668.586 599.51C922.564 199.74 1063.64 55.1624 1366.79 292.824C1678.36 537.087 1830.55 378.847 2458.5 356.418C2880.15 342.436 3258.46 470.015 3640.73 79.1521" stroke="white" stroke-opacity="0.1" stroke-width="0.7767" stroke-miterlimit="10"/>
<path d="M-37.2866 590.318C35.903 550.607 424.192 994.24 678.828 603.378C933.465 212.515 1068.19 47 1371.7 279.871C1684.14 519.555 1838.09 392.225 2468.83 368.377C2891.71 353.508 3263.55 448.402 3638.97 61.1597" stroke="white" stroke-opacity="0.1" stroke-width="0.7819" stroke-miterlimit="10"/>
<path d="M-37.3765 579.991C39.1373 538.47 433.804 989.165 689.07 607.246C944.335 225.326 1072.72 38.8024 1376.62 266.882C1689.95 502.025 1845.67 405.533 2479.13 380.337C2903.24 364.58 3268.59 426.79 3637.2 43.1675" stroke="white" stroke-opacity="0.1" stroke-width="0.787" stroke-miterlimit="10"/>
<path d="M-37.4663 569.664C42.3715 526.334 443.387 984.126 699.312 611.114C955.236 238.102 1077.27 30.6047 1381.56 253.858C1695.79 484.423 1853.25 418.841 2489.46 392.225C2914.8 375.546 3273.68 405.107 3635.43 25.0686" stroke="white" stroke-opacity="0.1" stroke-width="0.7922" stroke-miterlimit="10"/>
<path d="M-37.5562 559.337C45.6057 514.197 452.97 979.087 709.553 614.982C966.136 250.877 1081.82 22.4427 1386.47 240.906C1701.57 466.892 1860.82 432.22 2499.77 404.185C2926.36 386.618 3278.71 383.495 3633.67 7.07642" stroke="white" stroke-opacity="0.1" stroke-width="0.7973" stroke-miterlimit="10"/>
<path d="M-37.646 548.975C48.84 502.06 462.553 973.977 719.795 618.815C977.037 263.618 1086.37 14.2095 1391.38 227.881C1707.41 449.29 1868.37 445.493 2510.07 416.073C2937.88 397.62 3283.77 361.812 3631.87 -10.9868" stroke="white" stroke-opacity="0.1" stroke-width="0.8024" stroke-miterlimit="10"/>
<path d="M-37.7358 538.648C52.0742 489.923 472.166 968.937 730.037 622.683C987.908 276.429 1090.92 6.01163 1396.29 214.928C1713.22 431.723 1875.95 458.871 2520.37 428.068C2949.41 408.727 3288.8 340.236 3630.1 -28.9438" stroke="white" stroke-opacity="0.1" stroke-width="0.8076" stroke-miterlimit="10"/>
<path d="M-37.7957 528.321C55.3384 477.787 481.779 963.863 740.309 626.551C998.838 289.204 1095.54 -2.18578 1401.23 201.94C1719.06 414.157 1883.52 472.215 2530.7 439.992C2960.97 419.764 3293.89 318.588 3628.34 -47.0068" stroke="white" stroke-opacity="0.1" stroke-width="0.8127" stroke-miterlimit="10"/>
<path d="M-37.8856 517.994C58.5726 465.649 491.362 958.823 750.55 630.419C1009.74 302.015 1100.09 -10.3837 1406.14 188.951C1724.9 396.555 1891.07 485.523 2541.03 451.916C2972.56 430.765 3298.98 296.905 3626.6 -65.0349" stroke="white" stroke-opacity="0.1" stroke-width="0.8179" stroke-miterlimit="10"/>
<path d="M-37.9754 507.667C61.8069 453.513 500.975 953.784 760.792 634.287C1020.61 314.791 1104.67 -18.6523 1411.08 175.963C1730.73 378.988 1898.68 498.866 2551.36 463.875C2984.12 441.837 3304.04 275.293 3624.83 -83.0271" stroke="white" stroke-opacity="0.1" stroke-width="0.823" stroke-miterlimit="10"/>
<path d="M-38.0652 497.34C65.0711 441.376 510.558 948.709 771.034 638.156C1031.51 327.567 1109.25 -26.8501 1416 163.01C1736.57 361.422 1906.22 512.245 2561.66 475.834C2995.65 452.909 3309.1 253.681 3623.03 -101.02" stroke="white" stroke-opacity="0.1" stroke-width="0.8282" stroke-miterlimit="10"/>
<path d="M-38.1551 486.978C68.3053 429.204 520.141 943.635 781.276 641.989C1042.41 340.342 1113.83 -35.083 1420.91 149.986C1742.41 343.749 1913.8 525.517 2571.97 487.723C3007.18 463.911 3314.13 231.998 3621.27 -119.118" stroke="white" stroke-opacity="0.1" stroke-width="0.8333" stroke-miterlimit="10"/>
<path d="M-38.2449 476.651C71.5395 417.102 529.724 938.595 791.517 645.856C1053.31 353.118 1118.42 -43.3163 1425.82 136.997C1748.25 326.147 1921.35 538.861 2582.27 499.647C3018.74 474.912 3319.2 210.35 3619.47 -137.146" stroke="white" stroke-opacity="0.1" stroke-width="0.8385" stroke-miterlimit="10"/>
<path d="M-38.3348 466.324C74.7738 404.966 539.336 933.521 801.759 649.725C1064.18 365.894 1123 -51.5848 1430.73 124.009C1754.09 308.51 1928.89 552.204 2592.57 511.606C3030.27 485.984 3324.23 188.738 3617.7 -155.138" stroke="white" stroke-opacity="0.1" stroke-width="0.8436" stroke-miterlimit="10"/>
<path d="M-38.4246 455.997C78.0081 392.829 548.919 928.481 812.001 653.593C1075.08 378.705 1127.58 -59.818 1435.64 111.02C1759.96 290.908 1936.47 565.548 2602.9 523.53C3041.83 497.021 3329.32 167.091 3615.94 -173.166" stroke="white" stroke-opacity="0.1" stroke-width="0.8487" stroke-miterlimit="10"/>
<path d="M-38.5144 445.67C81.2423 380.692 558.502 923.407 822.243 657.461C1085.98 391.48 1132.19 -68.0867 1440.58 98.0671C1765.83 273.306 1944.04 578.891 2613.23 535.49C3053.39 508.093 3334.41 145.479 3614.2 -191.194" stroke="white" stroke-opacity="0.1" stroke-width="0.8539" stroke-miterlimit="10"/>
<path d="M-38.5743 435.308C84.5065 368.52 568.145 918.332 832.514 661.258C1096.88 404.185 1136.8 -76.4264 1445.52 85.0076C1771.7 255.597 1951.62 592.199 2623.53 547.378C3064.92 519.059 3339.44 123.796 3612.4 -209.257" stroke="white" stroke-opacity="0.1" stroke-width="0.859" stroke-miterlimit="10"/>
<path d="M-38.6642 424.98C87.7407 356.383 577.728 913.292 842.756 665.126C1107.78 416.96 1141.41 -84.6951 1450.43 72.0189C1777.57 237.924 1959.2 605.507 2633.87 559.302C3076.51 530.095 3344.53 102.112 3610.64 -227.285" stroke="white" stroke-opacity="0.1" stroke-width="0.8642" stroke-miterlimit="10"/>
<path d="M-38.754 414.654C90.9749 344.246 587.311 908.218 852.998 668.995C1118.68 429.772 1146 -92.9635 1455.34 59.0307C1783.44 220.252 1966.77 618.815 2644.17 571.226C3088.04 541.132 3349.56 80.4652 3608.87 -245.348" stroke="white" stroke-opacity="0.1" stroke-width="0.8693" stroke-miterlimit="10"/>
<path d="M-38.8438 404.327C94.2092 332.109 596.924 903.178 863.24 672.863C1129.59 442.582 1150.61 -101.268 1460.26 46.0773C1789.31 202.614 1974.32 632.194 2654.47 583.185C3099.57 552.204 3354.62 58.8531 3607.07 -263.341" stroke="white" stroke-opacity="0.1" stroke-width="0.8745" stroke-miterlimit="10"/>
<path d="M-38.9337 394C97.4435 320.008 606.507 898.139 873.481 676.731C1140.46 455.358 1155.22 -109.572 1465.2 33.0889C1795.18 184.941 1981.9 645.537 2664.83 595.109C3111.16 563.241 3359.71 37.2055 3605.37 -281.368" stroke="white" stroke-opacity="0.1" stroke-width="0.8796" stroke-miterlimit="10"/>
<path d="M-39.0235 383.637C100.678 307.835 616.09 893.029 883.723 680.564C1151.36 468.098 1159.83 -117.912 1470.11 20.0649C1801.05 167.233 1989.47 658.845 2675.13 607.033C3122.72 574.242 3364.77 15.5579 3603.57 -299.396" stroke="white" stroke-opacity="0.1" stroke-width="0.8847" stroke-miterlimit="10"/>
<path d="M-39.1134 373.31C103.942 295.699 625.673 887.99 893.965 684.432C1162.26 480.909 1164.44 -126.216 1475.02 7.07636C1806.92 149.524 1997.02 672.153 2685.43 618.957C3134.25 585.279 3369.84 -6.08961 3601.8 -317.459" stroke="white" stroke-opacity="0.1" stroke-width="0.8899" stroke-miterlimit="10"/>
<path d="M-39.2032 362.983C107.176 283.562 635.285 882.915 904.207 688.3C1173.13 493.685 1169.05 -134.52 1479.93 -5.91224C1812.79 131.816 2004.6 685.496 2695.74 630.881C3145.77 596.316 3374.87 -27.7372 3600.01 -335.487" stroke="white" stroke-opacity="0.1" stroke-width="0.895" stroke-miterlimit="10"/>
<path d="M-39.2931 352.656C110.41 271.425 644.869 877.876 914.448 692.168C1184.03 506.46 1173.67 -142.859 1484.84 -18.8652C1818.66 114.143 2012.14 698.84 2706.04 642.84C3157.3 607.388 3379.93 -49.3492 3598.24 -353.479" stroke="white" stroke-opacity="0.1" stroke-width="0.9002" stroke-miterlimit="10"/>
<path d="M-39.3829 342.329C113.645 259.288 654.451 872.836 924.69 696.036C1194.93 519.272 1178.28 -151.199 1489.75 -31.8538C1824.53 96.3991 2019.69 712.183 2716.34 654.799C3168.86 618.425 3384.96 -70.9613 3596.44 -371.472" stroke="white" stroke-opacity="0.1" stroke-width="0.9053" stroke-miterlimit="10"/>
<path d="M-39.4428 332.002C116.909 247.151 664.094 867.762 934.962 699.904C1205.83 532.047 1182.92 -159.539 1494.73 -44.8423C1830.46 78.6552 2027.33 725.527 2726.73 666.723C3180.48 629.461 3390.11 -92.6443 3594.74 -389.535" stroke="white" stroke-opacity="0.1" stroke-width="0.9105" stroke-miterlimit="10"/>
<path d="M-39.5327 321.64C120.143 235.015 673.677 862.687 945.204 703.737C1216.73 544.787 1187.53 -167.949 1499.64 -57.8662C1836.33 60.8759 2034.87 738.799 2737.03 678.612C3192.01 640.462 3395.14 -114.327 3592.97 -407.598" stroke="white" stroke-opacity="0.1" stroke-width="0.9156" stroke-miterlimit="10"/>
<path d="M-39.6225 311.313C123.377 222.878 683.26 857.648 955.445 707.605C1227.63 557.599 1192.14 -176.289 1504.55 -70.8192C1842.23 43.1676 2042.45 752.178 2747.33 690.607C3203.54 651.57 3400.2 -135.904 3591.17 -425.555" stroke="white" stroke-opacity="0.1" stroke-width="0.9208" stroke-miterlimit="10"/>
<path d="M-39.7123 300.986C126.611 210.741 692.873 852.573 965.687 711.473C1238.53 570.374 1196.76 -184.664 1509.46 -83.8079C1848.1 25.4235 2050 765.521 2757.64 702.53C3215.1 662.571 3405.26 -157.552 3589.4 -443.619" stroke="white" stroke-opacity="0.1" stroke-width="0.9259" stroke-miterlimit="10"/>
<path d="M-39.8021 290.659C129.846 198.604 702.456 847.534 975.929 715.342C1249.4 583.15 1201.37 -193.039 1514.37 -96.7962C1853.97 7.64431 2057.54 778.829 2767.94 714.455C3226.63 673.608 3410.29 -179.199 3587.61 -461.646" stroke="white" stroke-opacity="0.1" stroke-width="0.931" stroke-miterlimit="10"/>
<path d="M-39.892 280.332C133.08 186.467 712.039 842.459 986.171 719.21C1260.3 595.961 1205.98 -201.45 1519.28 -109.785C1859.83 -10.1351 2065.12 792.173 2778.24 726.378C3238.16 684.645 3415.35 -200.847 3585.84 -479.674" stroke="white" stroke-opacity="0.1" stroke-width="0.9362" stroke-miterlimit="10"/>
<path d="M-39.9818 269.97C136.344 174.33 721.652 837.384 996.412 723.078C1271.2 608.736 1210.59 -209.861 1524.22 -122.773C1865.73 -27.9501 2072.7 805.516 2788.57 738.338C3249.72 695.717 3420.42 -222.459 3584.07 -497.667" stroke="white" stroke-opacity="0.1" stroke-width="0.9413" stroke-miterlimit="10"/>
<path d="M-40.0717 259.643C139.548 162.158 731.235 832.345 1006.65 726.911C1282.07 621.512 1215.17 -218.307 1529.13 -135.762C1871.6 -45.765 2080.27 818.859 2798.9 750.262C3261.31 706.718 3425.51 -244.106 3582.34 -515.73" stroke="white" stroke-opacity="0.1" stroke-width="0.9465" stroke-miterlimit="10"/>
<path d="M-40.1615 249.316C142.783 150.057 740.818 827.27 1016.9 730.779C1292.97 634.288 1219.78 -226.717 1534.04 -148.751C1877.47 -63.5799 2087.82 832.168 2809.2 762.186C3272.84 717.755 3430.54 -265.754 3580.54 -533.758" stroke="white" stroke-opacity="0.1" stroke-width="0.9516" stroke-miterlimit="10"/>
<path d="M-40.2214 238.989C146.077 137.92 750.43 822.231 1027.17 734.647C1303.87 647.063 1224.43 -235.128 1538.99 -161.739C1883.37 -81.3948 2095.43 845.511 2819.54 774.109C3284.4 728.791 3435.63 -287.437 3578.77 -551.785" stroke="white" stroke-opacity="0.1" stroke-width="0.9568" stroke-miterlimit="10"/>
<path d="M-40.3112 228.662C149.311 125.783 760.043 817.192 1037.41 738.515C1314.78 659.874 1229.04 -243.574 1543.9 -174.728C1889.21 -99.2095 2102.97 858.854 2829.84 786.069C3295.93 739.864 3440.69 -309.049 3577.01 -569.778" stroke="white" stroke-opacity="0.1" stroke-width="0.9619" stroke-miterlimit="10"/>
<path d="M-40.4011 218.3C152.545 113.611 769.626 812.081 1047.65 742.348C1325.68 672.614 1233.62 -252.056 1548.81 -187.752C1895.08 -117.095 2110.52 872.127 2840.14 797.957C3307.49 750.865 3445.72 -330.732 3575.21 -587.876" stroke="white" stroke-opacity="0.1" stroke-width="0.967" stroke-miterlimit="10"/>
<path d="M-40.4909 207.973C155.78 101.474 779.209 807.042 1057.89 746.216C1336.58 685.39 1238.23 -260.501 1553.75 -200.705C1900.95 -134.91 2118.09 885.506 2850.47 809.917C3319.05 761.902 3450.81 -352.344 3573.47 -605.869" stroke="white" stroke-opacity="0.1" stroke-width="0.9722" stroke-miterlimit="10"/>
<path d="M-40.5807 197.646C159.014 89.3371 788.822 801.967 1068.13 750.084C1347.48 698.201 1242.81 -268.948 1558.66 -213.693C1906.82 -152.796 2125.67 898.849 2860.8 821.841C3330.61 772.938 3455.87 -373.991 3571.71 -623.896" stroke="white" stroke-opacity="0.1" stroke-width="0.9773" stroke-miterlimit="10"/>
<path d="M-40.6706 187.319C162.248 77.2003 798.405 796.928 1078.38 753.953C1358.35 710.977 1247.43 -277.429 1563.57 -226.682C1912.69 -170.646 2133.25 912.157 2871.1 833.8C3342.13 784.011 3460.93 -395.604 3569.94 -641.924" stroke="white" stroke-opacity="0.1" stroke-width="0.9825" stroke-miterlimit="10"/>
<path d="M-40.7604 176.992C165.482 65.0634 807.988 791.889 1088.62 757.82C1369.25 723.752 1252.07 -286.55 1568.48 -239.67C1918.62 -189.278 2140.79 925.5 2881.41 845.724C3353.66 795.047 3465.96 -417.251 3568.14 -659.952" stroke="white" stroke-opacity="0.1" stroke-width="0.9876" stroke-miterlimit="10"/>
<path d="M-40.8503 166.665C168.716 52.962 817.571 786.814 1098.86 761.689C1380.15 736.563 1256.62 -294.818 1573.39 -252.623C1924.46 -206.915 2148.37 938.844 2891.74 857.647C3365.25 806.048 3471.06 -438.899 3566.41 -677.98" stroke="white" stroke-opacity="0.1" stroke-width="0.9928" stroke-miterlimit="10"/>
<path d="M-40.9401 156.303C171.951 40.7899 827.184 781.739 1109.1 765.521C1391.02 749.304 1261.17 -303.122 1578.31 -265.647C1930.24 -224.588 2155.92 952.152 2902.01 869.571C3376.75 817.085 3476.06 -460.546 3564.58 -696.008" stroke="white" stroke-opacity="0.1" stroke-width="0.9979" stroke-miterlimit="10"/>
<path d="M-41 145.976C175.215 28.653 836.797 776.7 1119.37 769.39C1401.95 762.079 1265.78 -311.391 1583.28 -278.636C1936.11 -242.225 2163.52 965.495 2912.37 881.531C3388.34 828.157 3481.18 -482.194 3562.84 -714" stroke="white" stroke-opacity="0.1" stroke-width="1.0031" stroke-miterlimit="10"/>
</svg>
