<svg width="1920" height="2847" viewBox="0 0 1920 2847" fill="none" xmlns="http://www.w3.org/2000/svg">
<path d="M-64.0486 423.568C461.695 -34.9578 976.269 764.568 1371.98 769.31C1942.26 776.143 2056.3 -15.8175 2350.4 317.653C2644.48 651.088 2920.11 940.734 3160.43 363.986C3400.75 -212.762 3649.25 70.0167 3649.25 70.0167" stroke="white" stroke-opacity="0.1" stroke-width="0.6687" stroke-miterlimit="10"/>
<path d="M3649.34 80.1622C3646.01 81.9402 3391.17 -207.846 3150.19 360.186C2909.21 928.183 2639.93 659.211 2345.46 330.413C2050.46 1.54459 1934.65 763.069 1361.65 757.596C964.709 753.726 456.604 -13.7259 -62.2819 441.278" stroke="white" stroke-opacity="0.1" stroke-width="0.6738" stroke-miterlimit="10"/>
<path d="M3649.43 90.3074C3642.78 93.8634 3381.58 -202.86 3139.95 356.386C2898.31 915.633 2635.37 667.334 2340.55 343.173C2044.65 18.9067 1927.11 749.961 1351.35 745.882C953.18 742.883 451.573 7.5409 -60.5149 459.024" stroke="white" stroke-opacity="0.1" stroke-width="0.679" stroke-miterlimit="10"/>
<path d="M3649.52 100.453C3639.55 105.787 3371.97 -197.91 3129.7 352.586C2887.43 903.081 2630.82 675.457 2335.64 355.933C2038.84 36.2337 1919.53 736.852 1341.02 734.167C941.62 732.075 446.482 28.8424 -58.7482 476.735" stroke="white" stroke-opacity="0.1" stroke-width="0.6841" stroke-miterlimit="10"/>
<path d="M3649.61 110.633C3636.31 117.71 3362.39 -192.889 3119.46 348.821C2876.53 890.531 2626.27 683.616 2330.73 368.693C2033 53.5611 1911.98 723.778 1330.72 722.419C930.061 721.198 441.451 50.0746 -56.9515 494.411" stroke="white" stroke-opacity="0.1" stroke-width="0.6893" stroke-miterlimit="10"/>
<path d="M3649.7 120.778C3633.08 129.633 3352.81 -187.939 3109.22 345.02C2865.63 877.98 2622.26 691.006 2325.82 381.453C2027.76 70.1907 1904.44 710.669 1320.42 710.704C918.531 710.355 436.39 71.341 -55.1845 512.121" stroke="white" stroke-opacity="0.1" stroke-width="0.6944" stroke-miterlimit="10"/>
<path d="M3649.79 130.923C3629.81 141.557 3343.22 -182.988 3098.98 341.22C2854.73 865.429 2617.79 698.99 2320.87 394.213C2022.01 87.4134 1896.83 697.561 1310.08 698.99C906.972 699.513 431.329 92.6079 -53.4178 529.867" stroke="white" stroke-opacity="0.1" stroke-width="0.6996" stroke-miterlimit="10"/>
<path d="M3649.88 141.069C3626.58 153.48 3333.61 -178.003 3088.74 337.42C2843.86 852.843 2613.33 706.974 2315.96 406.973C2016.29 104.601 1889.28 684.487 1299.78 687.276C895.442 688.705 426.268 113.875 -51.6508 547.577" stroke="white" stroke-opacity="0.1" stroke-width="0.7047" stroke-miterlimit="10"/>
<path d="M3649.97 151.214C3623.34 165.403 3324.03 -173.052 3078.49 333.62C2832.96 840.292 2608.84 714.958 2311.05 419.733C2010.54 121.789 1881.71 671.378 1289.45 675.527C883.853 677.828 421.177 135.107 -49.8841 565.253" stroke="white" stroke-opacity="0.1" stroke-width="0.7099" stroke-miterlimit="10"/>
<path d="M3650.03 161.359C3620.08 177.327 3314.41 -168.102 3068.22 329.82C2822.03 827.741 2604.35 722.941 2306.11 432.458C2004.79 138.977 1874.13 658.235 1279.15 663.778C872.324 666.95 416.147 156.339 -48.1166 582.964" stroke="white" stroke-opacity="0.1" stroke-width="0.715" stroke-miterlimit="10"/>
<path d="M3650.12 171.539C3616.85 189.285 3304.8 -163.081 3057.98 326.055C2811.13 815.19 2599.86 730.96 2301.2 445.253C1999.04 156.199 1866.55 645.195 1268.82 652.098C860.764 656.142 411.055 177.64 -46.3502 600.709" stroke="white" stroke-opacity="0.1" stroke-width="0.7201" stroke-miterlimit="10"/>
<path d="M3650.21 181.685C3613.61 201.208 3295.22 -158.131 3047.74 322.255C2800.26 802.64 2595.36 738.944 2296.29 458.013C1993.32 173.422 1859.01 632.087 1258.52 640.349C849.235 645.265 406.024 198.872 -44.5835 618.385" stroke="white" stroke-opacity="0.1" stroke-width="0.7253" stroke-miterlimit="10"/>
<path d="M3650.3 191.83C3610.38 213.097 3285.64 -153.145 3037.5 318.455C2789.36 790.089 2590.9 746.963 2291.35 470.773C1987.54 190.645 1851.43 618.978 1248.18 628.636C837.675 634.458 400.933 220.174 -42.8168 636.096" stroke="white" stroke-opacity="0.1" stroke-width="0.7304" stroke-miterlimit="10"/>
<path d="M3650.39 201.975C3607.14 225.02 3276.02 -148.195 3027.26 314.654C2778.49 777.503 2586.38 754.946 2286.44 483.498C1981.79 207.797 1843.85 605.869 1237.88 616.886C826.116 623.58 395.902 241.405 -41.0195 653.807" stroke="white" stroke-opacity="0.1" stroke-width="0.7356" stroke-miterlimit="10"/>
<path d="M3650.48 212.121C3603.91 236.943 3266.44 -143.244 3017.01 310.854C2767.59 764.952 2581.89 762.93 2281.52 496.259C1976.01 225.02 1836.31 592.761 1227.58 605.172C814.586 612.738 390.841 262.672 -39.2528 671.518" stroke="white" stroke-opacity="0.1" stroke-width="0.7407" stroke-miterlimit="10"/>
<path d="M3650.57 222.301C3600.67 248.902 3256.86 -138.223 3006.77 307.089C2756.69 752.401 2577.4 770.983 2276.61 509.053C1970.26 242.277 1828.73 579.687 1217.28 593.458C803.057 601.895 385.78 283.939 -37.4564 689.228" stroke="white" stroke-opacity="0.1" stroke-width="0.7459" stroke-miterlimit="10"/>
<path d="M3650.66 232.446C3597.44 260.825 3247.27 -133.273 2996.53 303.289C2745.79 739.851 2572.87 779.002 2271.7 521.814C1964.51 259.5 1821.18 566.613 1206.95 581.744C791.497 591.087 380.719 305.206 -35.7194 706.939" stroke="white" stroke-opacity="0.1" stroke-width="0.751" stroke-miterlimit="10"/>
<path d="M3650.75 242.591C3594.21 272.748 3237.66 -128.322 2986.29 299.488C2734.92 727.299 2568.38 786.986 2266.79 534.573C1958.73 276.722 1813.64 553.504 1196.65 570.03C779.938 580.245 375.659 326.472 -33.9218 724.684" stroke="white" stroke-opacity="0.1" stroke-width="0.7562" stroke-miterlimit="10"/>
<path d="M3650.84 252.737C3590.97 284.672 3228.08 -123.336 2976.05 295.689C2724.02 714.714 2563.86 795.005 2261.85 547.299C1952.92 293.911 1806.03 540.361 1186.31 558.281C768.379 569.367 370.597 347.705 -32.1857 742.36" stroke="white" stroke-opacity="0.1" stroke-width="0.7613" stroke-miterlimit="10"/>
<path d="M3650.9 262.882C3587.68 296.56 3218.47 -118.386 2965.78 291.888C2713.09 702.163 2559.31 803.023 2256.91 560.059C1947.11 311.133 1798.45 527.252 1175.98 546.532C756.819 558.49 365.506 368.937 -30.4188 760.036" stroke="white" stroke-opacity="0.1" stroke-width="0.7664" stroke-miterlimit="10"/>
<path d="M3650.99 273.027C3584.44 308.483 3208.85 -113.401 2955.53 288.088C2702.18 689.612 2554.76 811.042 2252 572.819C1941.33 328.39 1790.88 514.178 1165.68 534.817C745.29 547.682 360.476 390.203 -28.6515 777.747" stroke="white" stroke-opacity="0.1" stroke-width="0.7716" stroke-miterlimit="10"/>
<path d="M3651.07 283.208C3581.21 320.442 3199.27 -108.415 2945.29 284.323C2691.31 677.061 2550.24 819.095 2247.09 585.614C1935.52 345.648 1783.33 501.105 1155.38 523.138C733.731 536.875 355.415 411.54 -26.8545 795.527" stroke="white" stroke-opacity="0.1" stroke-width="0.7767" stroke-miterlimit="10"/>
<path d="M3651.16 293.353C3577.98 332.365 3189.69 -103.464 2935.05 280.523C2680.41 664.51 2545.68 827.114 2242.17 598.339C1929.74 362.871 1775.78 487.961 1145.05 511.389C722.171 525.997 350.324 432.772 -25.0878 813.203" stroke="white" stroke-opacity="0.1" stroke-width="0.7819" stroke-miterlimit="10"/>
<path d="M3651.25 303.498C3574.74 344.289 3180.07 -98.4788 2924.81 276.723C2669.54 651.925 2541.16 835.168 2237.26 611.099C1923.93 380.093 1768.21 474.887 1134.75 499.64C710.642 515.12 345.292 454.004 -23.3212 830.879" stroke="white" stroke-opacity="0.1" stroke-width="0.787" stroke-miterlimit="10"/>
<path d="M3651.34 313.643C3571.51 356.212 3170.49 -93.5283 2914.57 272.923C2658.64 639.374 2536.61 843.221 2232.32 623.894C1918.09 397.385 1760.63 461.813 1124.41 487.961C699.082 504.347 340.202 475.305 -21.5541 848.659" stroke="white" stroke-opacity="0.1" stroke-width="0.7922" stroke-miterlimit="10"/>
<path d="M3651.43 323.789C3568.27 368.135 3160.91 -88.5777 2904.32 269.122C2647.74 626.823 2532.06 851.239 2227.41 636.619C1912.31 414.608 1753.06 448.67 1114.11 476.212C687.523 493.469 335.171 496.537 -19.7871 866.335" stroke="white" stroke-opacity="0.1" stroke-width="0.7973" stroke-miterlimit="10"/>
<path d="M3651.52 333.969C3565.04 380.059 3151.33 -83.5571 2894.08 265.357C2636.84 614.307 2527.51 859.328 2222.5 649.414C1906.47 431.901 1745.51 435.631 1103.81 464.533C675.994 482.662 330.11 517.839 -17.9904 884.081" stroke="white" stroke-opacity="0.1" stroke-width="0.8024" stroke-miterlimit="10"/>
<path d="M3651.61 344.114C3561.8 391.982 3141.71 -78.6067 2883.84 261.557C2625.97 601.721 2522.95 867.381 2217.59 662.14C1900.66 449.158 1737.93 422.487 1093.51 452.749C664.464 471.749 325.078 539.036 -16.2238 901.722" stroke="white" stroke-opacity="0.1" stroke-width="0.8076" stroke-miterlimit="10"/>
<path d="M3651.67 354.259C3558.54 403.905 3132.1 -73.6213 2873.57 257.757C2615.04 589.17 2518.34 875.435 2212.65 674.899C1894.82 466.415 1730.36 409.378 1083.18 441.035C652.904 460.907 319.987 560.303 -14.4571 919.467" stroke="white" stroke-opacity="0.1" stroke-width="0.8127" stroke-miterlimit="10"/>
<path d="M3651.76 364.405C3555.31 415.829 3122.52 -68.6706 2863.33 253.957C2604.14 576.584 2513.79 883.488 2207.74 687.66C1888.98 483.708 1722.81 396.305 1072.85 429.32C641.315 450.099 314.896 581.605 -12.7201 937.178" stroke="white" stroke-opacity="0.1" stroke-width="0.8179" stroke-miterlimit="10"/>
<path d="M3651.85 374.55C3552.07 427.752 3112.9 -63.72 2853.09 250.157C2593.27 564.033 2509.21 891.611 2202.79 700.42C1883.14 500.965 1715.2 383.196 1062.52 417.571C629.756 439.222 309.836 602.836 -10.9531 954.854" stroke="white" stroke-opacity="0.1" stroke-width="0.823" stroke-miterlimit="10"/>
<path d="M3651.94 384.695C3548.81 439.675 3103.32 -58.7345 2842.84 246.357C2582.37 551.483 2504.63 899.665 2197.88 713.145C1877.3 518.223 1707.66 370.052 1052.21 405.822C618.226 428.344 304.774 624.068 -9.15643 972.53" stroke="white" stroke-opacity="0.1" stroke-width="0.8282" stroke-miterlimit="10"/>
<path d="M3652.03 394.876C3545.57 451.633 3093.74 -53.749 2832.6 242.591C2571.47 538.932 2500.04 907.753 2192.97 725.94C1871.46 535.585 1700.08 357.014 1041.91 394.143C606.697 417.537 299.744 645.37 -7.3894 990.31" stroke="white" stroke-opacity="0.1" stroke-width="0.8333" stroke-miterlimit="10"/>
<path d="M3652.12 405.021C3542.34 463.522 3084.15 -48.7982 2822.36 238.791C2560.57 526.381 2495.46 915.842 2188.06 738.7C1865.62 552.877 1692.53 343.905 1031.61 382.429C595.138 406.729 294.682 666.637 -5.59276 1008.02" stroke="white" stroke-opacity="0.1" stroke-width="0.8385" stroke-miterlimit="10"/>
<path d="M3652.21 415.166C3539.1 475.445 3074.54 -43.8128 2812.12 234.991C2549.7 513.83 2490.88 923.965 2183.15 751.46C1859.79 570.204 1684.99 330.796 1021.31 370.68C583.608 395.851 289.651 687.869 -3.82602 1025.7" stroke="white" stroke-opacity="0.1" stroke-width="0.8436" stroke-miterlimit="10"/>
<path d="M3652.3 425.312C3535.87 487.369 3064.96 -38.862 2801.88 231.191C2538.8 501.244 2486.3 932.054 2178.24 764.22C1853.92 587.497 1677.41 317.688 1010.98 358.966C572.049 385.009 284.56 709.136 -2.05906 1043.41" stroke="white" stroke-opacity="0.1" stroke-width="0.8487" stroke-miterlimit="10"/>
<path d="M3652.39 435.457C3532.64 499.292 3055.38 -33.8767 2791.64 227.391C2527.9 488.693 2481.69 940.177 2173.3 776.945C1848.05 604.789 1669.83 304.579 1000.65 347.217C560.489 374.131 279.47 730.367 -0.322003 1061.12" stroke="white" stroke-opacity="0.1" stroke-width="0.8539" stroke-miterlimit="10"/>
<path d="M3652.45 445.637C3529.37 511.25 3045.73 -28.8912 2781.36 223.66C2516.99 476.212 2477.08 948.37 2168.36 789.775C1842.18 622.186 1662.26 291.505 990.344 335.538C548.96 363.359 274.438 751.669 1.4743 1078.86" stroke="white" stroke-opacity="0.1" stroke-width="0.859" stroke-miterlimit="10"/>
<path d="M3652.54 455.782C3526.14 523.173 3036.15 -23.9406 2771.12 219.86C2506.09 463.661 2472.46 956.493 2163.44 802.535C1836.31 639.548 1654.68 278.431 980.012 323.823C537.37 352.516 269.347 772.971 3.24125 1096.57" stroke="white" stroke-opacity="0.1" stroke-width="0.8642" stroke-miterlimit="10"/>
<path d="M3652.63 465.927C3522.9 535.097 3026.57 -18.9553 2760.88 216.06C2495.19 451.075 2467.88 964.616 2158.53 815.295C1830.44 656.91 1647.1 265.357 969.71 312.109C525.841 341.673 264.317 794.237 5.00865 1114.32" stroke="white" stroke-opacity="0.1" stroke-width="0.8693" stroke-miterlimit="10"/>
<path d="M3652.72 476.073C3519.67 547.02 3016.95 -14.0044 2750.64 212.26C2484.29 438.49 2463.27 972.774 2153.62 828.02C1824.57 674.237 1639.56 252.214 959.409 300.36C514.311 330.796 259.256 815.469 6.80529 1132" stroke="white" stroke-opacity="0.1" stroke-width="0.8745" stroke-miterlimit="10"/>
<path d="M3652.81 486.218C3516.43 558.908 3007.37 -9.05412 2740.4 208.46C2473.42 425.939 2458.66 980.932 2148.68 840.78C1818.7 691.599 1631.98 239.105 949.047 288.646C502.722 319.953 254.165 836.736 8.51201 1149.71" stroke="white" stroke-opacity="0.1" stroke-width="0.8796" stroke-miterlimit="10"/>
<path d="M3652.9 496.398C3513.2 570.867 2997.79 -4.03353 2730.16 204.695C2462.52 413.423 2454.05 989.125 2143.77 853.575C1812.83 708.996 1624.4 226.031 938.745 276.932C491.163 309.146 249.103 858.003 10.3087 1167.42" stroke="white" stroke-opacity="0.1" stroke-width="0.8847" stroke-miterlimit="10"/>
<path d="M3652.99 506.543C3509.94 582.79 2988.21 0.916918 2719.91 200.894C2451.62 400.837 2449.44 997.283 2138.86 866.335C1806.96 726.393 1616.86 212.957 928.444 265.217C479.633 298.303 244.043 879.269 12.0761 1185.16" stroke="white" stroke-opacity="0.1" stroke-width="0.8899" stroke-miterlimit="10"/>
<path d="M3653.08 516.689C3506.7 594.713 2978.59 5.90236 2709.67 197.094C2440.75 388.286 2444.82 1005.44 2133.95 879.095C1801.09 743.79 1609.28 199.848 918.142 253.503C468.104 287.46 239.012 900.536 13.8727 1202.87" stroke="white" stroke-opacity="0.1" stroke-width="0.895" stroke-miterlimit="10"/>
<path d="M3653.17 526.834C3503.47 606.637 2969.01 10.8531 2699.43 193.294C2429.85 375.735 2440.21 1013.63 2129.04 891.821C1795.22 761.152 1601.73 186.74 907.84 241.754C456.574 276.583 233.95 921.768 15.6391 1220.55" stroke="white" stroke-opacity="0.1" stroke-width="0.9002" stroke-miterlimit="10"/>
<path d="M3653.26 536.98C3500.23 618.56 2959.43 15.8042 2689.19 189.494C2418.95 363.15 2435.6 1021.83 2124.12 904.581C1789.35 778.584 1594.19 173.631 897.539 230.006C445.015 265.741 228.919 943 17.4357 1238.23" stroke="white" stroke-opacity="0.1" stroke-width="0.9053" stroke-miterlimit="10"/>
<path d="M3653.32 547.125C3496.97 630.484 2949.78 20.7895 2678.92 185.694C2408.05 350.599 2430.96 1030.02 2119.15 917.341C1783.42 796.016 1586.55 160.522 887.147 218.291C433.395 254.898 223.768 964.302 19.1427 1255.97" stroke="white" stroke-opacity="0.1" stroke-width="0.9105" stroke-miterlimit="10"/>
<path d="M3653.41 557.305C3493.74 642.407 2940.2 25.7748 2668.67 181.929C2397.15 338.083 2426.35 1038.28 2114.24 930.136C1777.55 813.482 1579 147.483 876.845 206.612C421.866 244.09 218.737 985.603 20.9098 1273.72" stroke="white" stroke-opacity="0.1" stroke-width="0.9156" stroke-miterlimit="10"/>
<path d="M3653.5 567.45C3490.5 654.33 2930.62 30.7255 2658.43 178.129C2386.25 325.497 2421.73 1046.48 2109.33 942.861C1771.65 830.879 1571.43 134.34 866.544 194.828C410.336 233.178 213.676 1006.8 22.7064 1291.36" stroke="white" stroke-opacity="0.1" stroke-width="0.9208" stroke-miterlimit="10"/>
<path d="M3653.59 577.596C3487.27 666.254 2921.01 35.7113 2648.19 174.329C2375.35 312.946 2417.12 1054.7 2104.42 955.621C1765.78 848.311 1563.88 121.231 856.242 183.114C398.777 222.37 208.616 1028.07 24.4737 1309.1" stroke="white" stroke-opacity="0.1" stroke-width="0.9259" stroke-miterlimit="10"/>
<path d="M3653.68 587.741C3484.03 678.177 2911.42 40.6615 2637.95 170.528C2364.48 300.395 2412.51 1062.93 2099.51 968.381C1759.91 865.778 1556.34 108.157 845.941 171.4C387.248 211.528 203.585 1049.33 26.2704 1326.81" stroke="white" stroke-opacity="0.1" stroke-width="0.931" stroke-miterlimit="10"/>
<path d="M3653.77 597.886C3480.8 690.1 2901.84 45.647 2627.71 166.728C2353.58 287.809 2407.9 1071.19 2094.6 981.141C1754.04 883.244 1548.76 95.0484 835.639 159.685C375.718 200.685 198.524 1070.6 28.0374 1344.52" stroke="white" stroke-opacity="0.1" stroke-width="0.9362" stroke-miterlimit="10"/>
<path d="M3653.86 608.066C3477.53 702.024 2892.23 50.6326 2617.47 162.928C2342.68 275.259 2403.29 1079.46 2089.66 993.901C1748.14 900.746 1541.18 81.94 825.307 147.937C364.159 189.808 193.463 1091.83 29.8041 1362.2" stroke="white" stroke-opacity="0.1" stroke-width="0.9413" stroke-miterlimit="10"/>
<path d="M3653.95 618.212C3474.33 713.982 2882.64 55.583 2607.22 159.163C2331.8 262.707 2398.71 1087.75 2084.74 1006.66C1742.27 918.247 1533.61 68.8311 814.976 136.222C352.569 179 188.372 1113.1 31.5411 1379.95" stroke="white" stroke-opacity="0.1" stroke-width="0.9465" stroke-miterlimit="10"/>
<path d="M3654.04 628.356C3471.1 725.87 2873.06 60.5682 2596.98 155.362C2320.9 250.156 2394.09 1096.02 2079.83 1019.42C1736.4 935.748 1526.06 55.7568 804.674 124.508C341.04 168.157 183.341 1134.37 33.3378 1397.66" stroke="white" stroke-opacity="0.1" stroke-width="0.9516" stroke-miterlimit="10"/>
<path d="M3654.1 638.502C3467.8 737.793 2863.45 65.5188 2586.71 151.562C2310 237.605 2389.45 1104.28 2074.89 1032.18C1730.51 953.25 1518.45 42.6482 794.343 112.794C329.48 157.314 178.25 1155.67 35.1048 1415.37" stroke="white" stroke-opacity="0.1" stroke-width="0.9568" stroke-miterlimit="10"/>
<path d="M3654.19 648.647C3464.57 749.717 2853.83 70.4698 2576.47 147.762C2299.1 225.02 2384.84 1112.58 2069.98 1044.94C1724.67 970.752 1510.91 29.5398 784.041 101.045C317.951 146.437 173.189 1176.9 36.8714 1433.04" stroke="white" stroke-opacity="0.1" stroke-width="0.9619" stroke-miterlimit="10"/>
<path d="M3654.28 658.828C3461.33 761.675 2844.25 75.4904 2566.23 143.997C2288.2 212.504 2380.26 1120.91 2065.07 1057.74C1718.8 988.323 1503.36 16.5012 773.739 89.366C306.391 135.63 168.158 1198.2 38.6681 1450.82" stroke="white" stroke-opacity="0.1" stroke-width="0.967" stroke-miterlimit="10"/>
<path d="M3654.37 668.973C3458.1 773.599 2834.67 80.4409 2555.99 140.197C2277.3 199.953 2375.65 1129.21 2060.13 1070.46C1712.93 1005.82 1495.78 3.35756 763.408 77.6169C294.832 124.787 163.067 1219.43 40.4051 1468.5" stroke="white" stroke-opacity="0.1" stroke-width="0.9722" stroke-miterlimit="10"/>
<path d="M3654.46 679.118C3454.86 785.522 2825.06 85.4263 2545.74 136.397C2266.4 187.367 2371.06 1137.5 2055.22 1083.22C1707.06 1023.4 1488.21 -9.75151 753.076 65.9024C283.273 113.944 158.006 1240.7 42.1722 1486.21" stroke="white" stroke-opacity="0.1" stroke-width="0.9773" stroke-miterlimit="10"/>
<path d="M3654.55 689.263C3451.63 797.445 2815.47 90.3766 2535.5 132.596C2255.53 174.816 2366.45 1145.84 2050.31 1095.98C1701.19 1040.93 1480.63 -22.8256 742.774 54.1531C271.743 103.067 152.945 1261.93 43.9389 1503.92" stroke="white" stroke-opacity="0.1" stroke-width="0.9825" stroke-miterlimit="10"/>
<path d="M3654.64 699.409C3448.4 809.368 2805.89 95.3275 2525.26 128.796C2244.63 162.265 2361.81 1154.8 2045.39 1108.74C1695.26 1059.24 1473.08 -35.9341 732.473 42.4391C260.214 92.2243 147.914 1283.2 45.7358 1521.63" stroke="white" stroke-opacity="0.1" stroke-width="0.9876" stroke-miterlimit="10"/>
<path d="M3567.92 2016.1C3358.36 2127.8 2709.5 1406.85 2428.21 1431.54C2146.93 1456.22 2270.46 2469.46 1953.68 2428.01C1602.61 2383.1 1378.7 1257.5 635.338 1337.27C161.821 1387.96 56.019 2611.01 -39.3312 2845.88" stroke="white" stroke-opacity="0.1" stroke-width="0.9928" stroke-miterlimit="10"/>
<path d="M3654.82 719.734C3441.93 833.215 2786.69 105.299 2504.78 121.231C2222.86 137.164 2352.71 1171.08 2035.57 1134.26C1683.64 1093.92 1457.96 -62.1162 711.869 19.0112C237.125 70.5744 137.822 1325.73 49.2992 1557.05" stroke="white" stroke-opacity="0.1" stroke-width="0.9979" stroke-miterlimit="10"/>
<path d="M3654.88 729.88C3438.66 845.138 2777.08 110.249 2494.5 117.431C2211.93 124.613 2348.1 1179.2 2030.6 1147.02C1677.77 1111.25 1450.35 -75.2253 701.508 7.26184C225.536 59.6966 132.701 1347 51.0365 1574.73" stroke="white" stroke-opacity="0.1" stroke-width="1.0031" stroke-miterlimit="10"/>
</svg>
