<svg width="1920" height="2567" viewBox="0 0 1920 2567" fill="none" xmlns="http://www.w3.org/2000/svg">
<path d="M476.152 4237.88C-105.674 3849.65 506.713 3146.15 400.022 2763.26C246.269 2211.48 -535.569 2306.75 -302.484 1936.66C-69.4232 1566.62 127.363 1225.72 -486.2 1143.41C-1099.76 1061.1 -901.857 748.145 -901.857 748.145" stroke="white" stroke-opacity="0.1" stroke-width="0.6687" stroke-miterlimit="10"/>
<path d="M-892.185 745.602C-889.568 748.347 -1092.32 1069.2 -486.876 1154.43C118.531 1239.66 -60.4594 1569.04 -289.011 1938.21C-517.477 2307.92 235.977 2222.29 391.753 2776.3C499.593 3160.11 -84.2131 3848.97 492.29 4231.49" stroke="white" stroke-opacity="0.1" stroke-width="0.6738" stroke-miterlimit="10"/>
<path d="M-882.514 743.062C-877.281 748.552 -1084.81 1077.28 -487.553 1165.44C109.7 1253.6 -51.4972 1571.46 -275.549 1939.73C-499.398 2309.07 225.636 2233.05 383.476 2789.31C492.464 3174.05 -62.7407 3848.23 508.458 4225.09" stroke="white" stroke-opacity="0.1" stroke-width="0.679" stroke-miterlimit="10"/>
<path d="M-872.846 740.524C-864.997 748.758 -1077.32 1085.4 -488.231 1176.46C100.86 1267.51 -42.538 1573.89 -262.092 1941.25C-481.356 2310.22 215.303 2243.84 375.206 2802.35C485.376 3188.01 -41.2242 3847.54 524.588 4218.71" stroke="white" stroke-opacity="0.1" stroke-width="0.6841" stroke-miterlimit="10"/>
<path d="M-863.147 737.98C-852.716 748.967 -1069.78 1093.48 -488.878 1187.46C92.0283 1281.45 -33.5486 1576.3 -248.638 1942.78C-463.312 2311.41 204.995 2254.59 366.893 2815.37C478.22 3201.98 -19.7973 3846.81 540.671 4212.32" stroke="white" stroke-opacity="0.1" stroke-width="0.6893" stroke-miterlimit="10"/>
<path d="M-853.484 735.447C-840.439 749.179 -1062.32 1101.57 -489.56 1198.47C83.1963 1295.38 -25.4396 1578.4 -235.189 1944.3C-446.101 2312.21 194.653 2265.35 358.613 2828.37C471.087 3215.91 1.6647 3846.1 556.791 4205.95" stroke="white" stroke-opacity="0.1" stroke-width="0.6944" stroke-miterlimit="10"/>
<path d="M-843.824 732.917C-828.156 749.421 -1054.85 1109.66 -490.242 1209.49C74.3656 1309.31 -16.6448 1580.78 -221.733 1945.86C-428.189 2313.34 184.329 2276.16 350.341 2841.41C463.963 3229.87 23.1221 3845.4 572.941 4199.57" stroke="white" stroke-opacity="0.1" stroke-width="0.6996" stroke-miterlimit="10"/>
<path d="M-834.166 730.39C-815.885 749.637 -1047.35 1117.77 -490.927 1220.5C65.4924 1323.23 -7.8536 1583.17 -208.291 1947.4C-410.325 2314.46 174.02 2286.9 342.06 2854.41C456.861 3243.79 44.5729 3844.71 589.053 4193.21" stroke="white" stroke-opacity="0.1" stroke-width="0.7047" stroke-miterlimit="10"/>
<path d="M-824.51 727.831C-803.616 749.822 -1039.89 1125.83 -491.608 1231.48C56.6717 1337.12 0.955306 1585.55 -194.841 1948.91C-392.446 2315.6 163.703 2297.66 333.772 2867.43C449.731 3257.77 66.0145 3844.05 605.155 4186.86" stroke="white" stroke-opacity="0.1" stroke-width="0.7099" stroke-miterlimit="10"/>
<path d="M-814.846 725.15C-791.338 749.885 -1032.42 1133.8 -492.256 1242.35C47.9111 1350.9 9.81605 1587.8 -181.367 1950.35C-374.521 2316.65 153.425 2308.33 325.567 2880.35C442.686 3271.63 87.5309 3843.32 621.412 4180.48" stroke="white" stroke-opacity="0.1" stroke-width="0.715" stroke-miterlimit="10"/>
<path d="M-805.158 722.426C-779.036 749.904 -1024.89 1141.74 -492.88 1253.18C39.1432 1364.64 18.7103 1590.04 -167.835 1951.74C-356.563 2317.69 143.249 2318.96 317.438 2893.27C435.718 3285.5 109.132 3842.62 637.706 4174.1" stroke="white" stroke-opacity="0.1" stroke-width="0.7201" stroke-miterlimit="10"/>
<path d="M-795.506 719.706C-766.771 749.929 -1017.44 1149.67 -493.538 1264.01C30.3673 1378.35 27.5715 1592.28 -154.336 1953.14C-338.615 2318.7 133.001 2329.58 309.238 2906.18C428.68 3299.36 130.653 3841.9 653.938 4167.74" stroke="white" stroke-opacity="0.1" stroke-width="0.7253" stroke-miterlimit="10"/>
<path d="M-785.857 716.981C-754.541 749.956 -1009.96 1157.58 -494.197 1274.83C21.601 1392.08 36.458 1594.48 -140.829 1954.56C-320.65 2319.76 122.763 2340.23 301.082 2919.1C421.72 3313.22 152.258 3841.21 670.208 4161.37" stroke="white" stroke-opacity="0.1" stroke-width="0.7304" stroke-miterlimit="10"/>
<path d="M-776.21 714.25C-742.281 749.968 -1002.51 1165.53 -494.856 1285.65C12.7943 1405.78 45.3289 1596.75 -127.362 1955.97C-302.759 2320.81 112.527 2350.87 292.888 2932.01C414.697 3327.11 173.784 3840.48 686.474 4154.98" stroke="white" stroke-opacity="0.1" stroke-width="0.7356" stroke-miterlimit="10"/>
<path d="M-766.564 711.512C-730.022 749.974 -995.063 1173.44 -495.517 1296.47C4.03033 1419.49 54.1927 1598.98 -113.862 1957.35C-284.793 2321.87 102.286 2361.47 284.732 2944.9C407.704 3340.95 195.354 3839.78 702.754 4148.61" stroke="white" stroke-opacity="0.1" stroke-width="0.7407" stroke-miterlimit="10"/>
<path d="M-756.883 708.593C-717.725 749.8 -987.552 1181.2 -496.116 1307.13C-4.67933 1433.05 63.1828 1601.04 -100.269 1958.61C-266.743 2322.8 92.1641 2371.99 276.673 2957.71C400.823 3354.73 217.037 3839.05 719.168 4142.19" stroke="white" stroke-opacity="0.1" stroke-width="0.7459" stroke-miterlimit="10"/>
<path d="M-747.234 705.567C-705.457 749.519 -980.107 1188.89 -496.73 1317.7C-13.3538 1446.5 72.1893 1603.03 -86.6681 1959.79C-248.686 2323.67 82.0849 2382.42 268.689 2970.5C394.059 3368.5 238.798 3838.31 735.698 4135.82" stroke="white" stroke-opacity="0.1" stroke-width="0.751" stroke-miterlimit="10"/>
<path d="M-737.587 702.541C-693.192 749.238 -972.656 1196.6 -497.348 1328.27C-22.0407 1459.93 81.1523 1605.01 -73.0692 1960.97C-230.622 2324.58 71.9685 2392.85 260.692 2983.27C387.259 3382.28 260.558 3837.56 752.242 4129.37" stroke="white" stroke-opacity="0.1" stroke-width="0.7562" stroke-miterlimit="10"/>
<path d="M-727.941 699.516C-680.926 748.96 -965.18 1204.29 -497.967 1338.85C-30.7533 1473.41 90.1571 1607.02 -59.4941 1962.2C-212.582 2325.52 61.8338 2403.36 252.669 2996.09C380.424 3396.07 282.287 3836.83 768.738 4123.01" stroke="white" stroke-opacity="0.1" stroke-width="0.7613" stroke-miterlimit="10"/>
<path d="M-718.288 696.521C-668.678 748.749 -957.732 1212.01 -498.58 1349.46C-39.4274 1486.91 99.1695 1609.05 -45.8865 1963.42C-194.508 2326.45 51.7209 2413.84 244.644 3008.9C373.587 3409.88 304.024 3836.13 785.226 4116.62" stroke="white" stroke-opacity="0.1" stroke-width="0.7664" stroke-miterlimit="10"/>
<path d="M-708.646 693.498C-656.416 748.472 -950.253 1219.73 -499.203 1360.05C-48.1131 1500.38 108.181 1611.09 -32.2882 1964.61C-176.411 2327.35 41.6372 2424.32 236.641 3021.69C366.805 3423.64 325.778 3835.37 801.746 4110.22" stroke="white" stroke-opacity="0.1" stroke-width="0.7716" stroke-miterlimit="10"/>
<path d="M-698.971 690.466C-644.12 748.186 -942.782 1227.42 -499.795 1370.63C-56.8084 1513.84 117.217 1613.09 -18.6561 1965.79C-158.304 2328.28 31.5434 2434.77 228.668 3034.48C360.03 3437.44 347.608 3834.61 818.326 4103.77" stroke="white" stroke-opacity="0.1" stroke-width="0.7767" stroke-miterlimit="10"/>
<path d="M-689.332 687.445C-631.86 747.912 -935.347 1235.12 -500.424 1381.22C-65.4998 1527.32 126.226 1615.13 -5.09168 1966.99C-140.24 2329.19 21.3788 2445.24 220.634 3047.31C353.184 3451.26 369.347 3833.92 834.813 4097.39" stroke="white" stroke-opacity="0.1" stroke-width="0.7819" stroke-miterlimit="10"/>
<path d="M-679.694 684.425C-619.6 747.639 -927.873 1242.84 -501.054 1391.82C-74.2352 1540.8 135.259 1617.14 8.50538 1968.19C-122.167 2330.13 11.2854 2455.74 212.589 3060.13C346.328 3465.06 391.069 3833.16 851.3 4091" stroke="white" stroke-opacity="0.1" stroke-width="0.787" stroke-miterlimit="10"/>
<path d="M-670.058 681.403C-607.341 747.365 -920.441 1250.55 -501.686 1402.42C-82.9312 1554.29 144.301 1619.17 22.1445 1969.4C-104.019 2331.08 1.18978 2466.23 204.617 3072.96C339.579 3478.87 412.877 3832.46 867.888 4084.59" stroke="white" stroke-opacity="0.1" stroke-width="0.7922" stroke-miterlimit="10"/>
<path d="M-660.423 678.385C-595.083 747.094 -913.011 1258.26 -502.321 1413.03C-91.6313 1567.8 153.308 1621.22 35.7076 1970.61C-85.9543 2332 -8.97669 2476.76 196.566 3085.79C332.726 3492.71 434.6 3831.71 884.375 4078.21" stroke="white" stroke-opacity="0.1" stroke-width="0.7973" stroke-miterlimit="10"/>
<path d="M-650.756 675.357C-582.826 746.823 -905.516 1265.96 -502.925 1423.63C-100.3 1581.3 162.382 1623.25 49.3377 1971.81C-67.8058 2332.96 -19.0548 2487.23 188.579 3098.61C325.928 3506.51 456.4 3830.97 900.92 4071.78" stroke="white" stroke-opacity="0.1" stroke-width="0.8024" stroke-miterlimit="10"/>
<path d="M-641.124 672.34C-570.57 746.554 -898.081 1273.7 -503.564 1434.25C-109.048 1594.8 171.42 1625.3 62.9002 1973.02C-49.6997 2333.89 -29.2282 2497.76 180.488 3111.46C319.028 3520.34 478.093 3830.24 917.374 4065.42" stroke="white" stroke-opacity="0.1" stroke-width="0.8076" stroke-miterlimit="10"/>
<path d="M-631.484 669.351C-558.305 746.314 -890.613 1281.44 -504.197 1444.9C-117.748 1608.35 180.475 1627.4 76.5048 1974.25C-31.584 2334.86 -39.3711 2508.29 172.471 3124.32C312.201 3534.2 499.869 3829.55 933.928 4059.02" stroke="white" stroke-opacity="0.1" stroke-width="0.8127" stroke-miterlimit="10"/>
<path d="M-621.855 666.335C-546.05 746.046 -883.189 1289.16 -504.84 1455.52C-126.492 1621.88 189.513 1629.45 90.1007 1975.46C-13.4352 2335.82 -49.4933 2518.78 164.449 3137.19C305.412 3548.07 521.68 3828.85 950.458 4052.67" stroke="white" stroke-opacity="0.1" stroke-width="0.8179" stroke-miterlimit="10"/>
<path d="M-612.227 663.32C-533.796 745.78 -875.757 1296.92 -505.487 1466.15C-135.216 1635.38 198.624 1631.51 103.704 1976.7C4.68001 2336.8 -59.6359 2529.35 156.391 3150.08C298.544 3561.95 543.415 3828.14 966.944 4046.3" stroke="white" stroke-opacity="0.1" stroke-width="0.823" stroke-miterlimit="10"/>
<path d="M-602.599 660.305C-521.534 745.544 -868.302 1304.64 -506.134 1476.78C-143.933 1648.92 207.669 1633.6 117.266 1977.92C22.7964 2337.77 -69.8312 2539.88 148.322 3162.95C291.666 3575.8 565.153 3827.43 983.423 4039.9" stroke="white" stroke-opacity="0.1" stroke-width="0.8282" stroke-miterlimit="10"/>
<path d="M-592.94 657.281C-509.247 745.27 -860.849 1312.36 -506.752 1487.41C-152.654 1662.46 216.746 1635.67 130.895 1979.12C41.0125 2338.72 -79.9224 2550.41 140.316 3175.8C284.852 3589.64 586.949 3826.68 1000.01 4033.5" stroke="white" stroke-opacity="0.1" stroke-width="0.8333" stroke-miterlimit="10"/>
<path d="M-583.314 654.268C-497.028 745.015 -853.43 1320.09 -507.404 1498.05C-161.378 1676.01 225.823 1637.75 144.49 1980.34C59.1629 2339.69 -90.0922 2560.94 132.274 3188.67C278.042 3603.52 608.722 3825.97 1016.52 4027.1" stroke="white" stroke-opacity="0.1" stroke-width="0.8385" stroke-miterlimit="10"/>
<path d="M-573.69 651.255C-484.775 744.753 -845.971 1327.84 -508.059 1508.7C-170.114 1689.54 234.931 1639.82 158.085 1981.56C77.346 2340.65 -100.266 2571.48 124.194 3201.55C271.155 3617.38 630.453 3825.24 1033.01 4020.73" stroke="white" stroke-opacity="0.1" stroke-width="0.8436" stroke-miterlimit="10"/>
<path d="M-564.067 648.243C-472.523 744.492 -838.554 1335.58 -508.715 1519.34C-178.877 1703.11 244.006 1641.9 171.68 1982.78C95.5059 2341.65 -110.434 2582.04 116.154 3214.46C264.306 3631.28 652.236 3824.56 1049.53 4014.36" stroke="white" stroke-opacity="0.1" stroke-width="0.8487" stroke-miterlimit="10"/>
<path d="M-554.445 645.232C-460.272 744.231 -831.105 1343.31 -509.375 1530C-187.611 1716.67 253.122 1644.01 185.249 1984.03C113.665 2342.65 -120.608 2592.62 108.076 3227.38C257.421 3645.19 673.986 3823.89 1066.06 4008.02" stroke="white" stroke-opacity="0.1" stroke-width="0.8539" stroke-miterlimit="10"/>
<path d="M-544.782 642.24C-447.979 743.991 -823.641 1351.11 -509.961 1540.66C-196.281 1730.22 262.303 1646.1 198.919 1985.27C131.926 2343.63 -130.75 2603.18 100.054 3240.27C250.624 3659.06 695.787 3823.15 1082.61 4001.61" stroke="white" stroke-opacity="0.1" stroke-width="0.859" stroke-miterlimit="10"/>
<path d="M-535.162 639.23C-435.729 743.732 -816.228 1358.85 -510.625 1551.33C-205.022 1743.8 271.417 1648.21 212.513 1986.49C150.152 2344.61 -140.898 2613.76 92.0019 3253.19C243.773 3673 717.604 3822.46 1099.13 3995.24" stroke="white" stroke-opacity="0.1" stroke-width="0.8642" stroke-miterlimit="10"/>
<path d="M-525.542 636.219C-423.478 743.474 -808.782 1366.59 -511.29 1561.99C-213.798 1757.39 280.523 1650.29 226.108 1987.72C168.38 2345.6 -151.049 2624.34 83.9397 3266.1C236.904 3686.89 739.374 3821.74 1115.68 3988.87" stroke="white" stroke-opacity="0.1" stroke-width="0.8693" stroke-miterlimit="10"/>
<path d="M-515.923 633.211C-411.228 743.218 -801.362 1374.37 -511.957 1572.66C-222.577 1770.98 289.67 1652.4 239.67 1988.96C186.576 2346.6 -161.278 2634.91 75.8403 3279.02C229.997 3700.8 761.12 3821.05 1132.16 3982.48" stroke="white" stroke-opacity="0.1" stroke-width="0.8745" stroke-miterlimit="10"/>
<path d="M-506.305 630.202C-399.011 742.972 -793.952 1382.13 -512.627 1583.33C-231.336 1784.55 298.816 1654.5 253.272 1990.22C204.804 2347.6 -171.47 2645.51 67.7868 3291.99C223.137 3714.76 782.907 3820.38 1148.7 3976.18" stroke="white" stroke-opacity="0.1" stroke-width="0.8796" stroke-miterlimit="10"/>
<path d="M-496.654 627.185C-386.727 742.708 -786.476 1389.87 -513.265 1594C-240.055 1798.13 307.995 1656.6 266.901 1991.44C223.068 2348.58 -181.632 2656.11 59.7143 3304.91C216.299 3728.7 804.689 3819.69 1165.21 3969.79" stroke="white" stroke-opacity="0.1" stroke-width="0.8847" stroke-miterlimit="10"/>
<path d="M-487.037 624.177C-374.469 742.483 -779.067 1397.63 -513.939 1604.68C-248.844 1811.74 317.14 1658.72 280.496 1992.68C241.331 2349.57 -191.806 2666.68 51.638 3317.84C209.417 3742.61 826.471 3818.99 1181.76 3963.42" stroke="white" stroke-opacity="0.1" stroke-width="0.8899" stroke-miterlimit="10"/>
<path d="M-477.421 621.171C-362.219 742.23 -771.617 1405.41 -514.615 1615.37C-257.612 1825.32 326.284 1660.83 294.091 1993.91C259.596 2350.55 -202.009 2677.3 43.5576 3330.77C202.53 3756.54 848.245 3818.27 1198.28 3957.03" stroke="white" stroke-opacity="0.1" stroke-width="0.895" stroke-miterlimit="10"/>
<path d="M-467.804 618.165C-349.968 741.979 -764.21 1413.18 -515.292 1626.06C-266.374 1838.94 335.461 1662.94 307.653 1995.16C277.828 2351.55 -212.224 2687.89 35.4412 3343.72C195.607 3770.48 869.996 3817.59 1214.76 3950.69" stroke="white" stroke-opacity="0.1" stroke-width="0.9002" stroke-miterlimit="10"/>
<path d="M-458.189 615.16C-337.718 741.728 -756.803 1420.95 -515.972 1636.75C-275.173 1852.56 344.638 1665.05 321.248 1996.4C296.127 2352.54 -222.443 2698.49 27.3211 3356.67C188.723 3784.44 891.739 3816.89 1231.24 3944.31" stroke="white" stroke-opacity="0.1" stroke-width="0.9053" stroke-miterlimit="10"/>
<path d="M-448.566 612.183C-325.46 741.507 -749.348 1428.76 -516.645 1647.47C-283.943 1866.18 353.822 1667.19 334.86 1997.7C314.443 2353.58 -232.641 2709.17 19.2556 3369.71C181.851 3798.47 913.583 3816.28 1247.81 3938.01" stroke="white" stroke-opacity="0.1" stroke-width="0.9105" stroke-miterlimit="10"/>
<path d="M-438.918 609.168C-313.209 741.257 -741.909 1436.53 -517.295 1658.17C-292.681 1879.8 363.064 1669.28 348.489 1998.94C332.777 2354.55 -242.8 2719.76 11.1953 3382.65C174.985 3812.41 935.395 3815.56 1264.37 3931.65" stroke="white" stroke-opacity="0.1" stroke-width="0.9156" stroke-miterlimit="10"/>
<path d="M-429.304 606.165C-300.958 741.01 -734.504 1444.31 -517.981 1668.87C-301.49 1893.45 372.239 1671.4 362.051 2000.19C351.054 2355.58 -253.056 2730.41 3.0313 3395.63C168.016 3826.38 957.117 3814.9 1280.81 3925.28" stroke="white" stroke-opacity="0.1" stroke-width="0.9208" stroke-miterlimit="10"/>
<path d="M-419.69 603.161C-288.707 740.763 -727.059 1452.1 -518.668 1679.58C-310.268 1907.08 381.448 1673.51 375.648 2001.44C369.356 2356.57 -263.289 2741.03 -5.06951 3408.6C161.151 3840.36 978.906 3814.22 1297.37 3918.93" stroke="white" stroke-opacity="0.1" stroke-width="0.9259" stroke-miterlimit="10"/>
<path d="M-410.076 600.158C-276.456 740.517 -719.655 1459.89 -519.357 1690.29C-319.058 1920.7 390.655 1675.62 389.244 2002.69C387.693 2357.55 -273.494 2751.64 -13.1737 3421.57C154.241 3854.32 1000.69 3813.51 1313.88 3912.55" stroke="white" stroke-opacity="0.1" stroke-width="0.931" stroke-miterlimit="10"/>
<path d="M-400.463 597.155C-264.205 740.272 -712.219 1467.66 -520.048 1701.01C-327.876 1934.35 399.895 1677.73 402.84 2003.94C406.03 2358.54 -283.727 2762.29 -21.2818 3434.55C147.328 3868.3 1022.48 3812.84 1330.4 3906.2" stroke="white" stroke-opacity="0.1" stroke-width="0.9362" stroke-miterlimit="10"/>
<path d="M-390.874 594.155C-251.999 740.071 -704.836 1475.5 -520.796 1711.77C-336.714 1948.05 409.102 1679.87 416.414 2005.27C424.38 2359.59 -294.008 2773.02 -29.4523 3447.65C140.359 3882.4 1044.23 3812.26 1346.89 3899.95" stroke="white" stroke-opacity="0.1" stroke-width="0.9413" stroke-miterlimit="10"/>
<path d="M-381.359 591.171C-239.813 739.812 -697.538 1483.36 -521.553 1722.55C-345.6 1961.76 418.31 1681.99 429.957 2006.59C442.703 2360.65 -304.327 2783.8 -37.6204 3460.81C133.438 3896.59 1066.02 3811.76 1363.45 3893.77" stroke="white" stroke-opacity="0.1" stroke-width="0.9465" stroke-miterlimit="10"/>
<path d="M-371.841 588.188C-227.681 739.602 -690.203 1491.2 -522.34 1733.35C-354.478 1975.5 427.494 1684.16 443.503 2007.92C461.029 2361.72 -314.623 2794.54 -45.799 3473.95C126.465 3910.74 1087.8 3811.2 1379.96 3887.54" stroke="white" stroke-opacity="0.1" stroke-width="0.9516" stroke-miterlimit="10"/>
<path d="M-362.309 585.233C-215.494 739.44 -682.889 1499.08 -523.118 1744.18C-363.356 1989.25 436.69 1686.36 457.061 2009.28C479.367 2362.81 -324.937 2805.36 -53.9716 3487.11C119.497 3924.92 1109.62 3810.69 1396.48 3881.33" stroke="white" stroke-opacity="0.1" stroke-width="0.9568" stroke-miterlimit="10"/>
<path d="M-352.782 582.25C-203.32 739.222 -675.571 1506.97 -523.904 1754.99C-372.269 2003.01 445.912 1688.52 470.613 2010.6C497.691 2363.85 -335.27 2816.12 -62.1888 3500.26C112.484 3939.08 1131.38 3810.17 1412.97 3875.14" stroke="white" stroke-opacity="0.1" stroke-width="0.9619" stroke-miterlimit="10"/>
<path d="M-343.217 579.255C-191.107 738.993 -668.191 1514.81 -524.653 1765.78C-381.116 2016.76 455.162 1690.64 484.201 2011.92C516.095 2364.89 -345.538 2826.86 -70.3405 3513.4C105.545 3953.25 1153.19 3809.6 1429.55 3868.88" stroke="white" stroke-opacity="0.1" stroke-width="0.967" stroke-miterlimit="10"/>
<path d="M-333.682 576.272C-178.924 738.776 -660.875 1522.67 -525.436 1776.59C-389.998 2030.52 464.387 1692.81 497.733 2013.29C534.435 2365.95 -355.901 2837.67 -78.5544 3526.58C98.5687 3967.44 1174.96 3809.1 1446.04 3862.71" stroke="white" stroke-opacity="0.1" stroke-width="0.9722" stroke-miterlimit="10"/>
<path d="M-324.143 573.287C-166.737 738.559 -653.513 1530.55 -526.217 1787.41C-398.913 2044.29 473.607 1694.94 511.293 2014.62C552.844 2367 -366.231 2848.46 -86.7368 3539.76C91.59 3981.63 1196.75 3808.56 1462.56 3856.49" stroke="white" stroke-opacity="0.1" stroke-width="0.9773" stroke-miterlimit="10"/>
<path d="M-314.6 570.303C-154.546 738.342 -646.189 1538.42 -526.997 1798.22C-407.804 2058.03 482.87 1697.1 524.855 2015.95C571.224 2368.05 -376.531 2859.26 -94.9628 3552.92C84.5674 3995.8 1218.51 3808.04 1479.08 3850.28" stroke="white" stroke-opacity="0.1" stroke-width="0.9825" stroke-miterlimit="10"/>
<path d="M-305.053 567.318C-142.35 738.125 -638.861 1546.28 -527.774 1809.04C-416.688 2071.8 492.739 1699.12 538.42 2017.28C590.352 2368.96 -386.873 2870.03 -103.158 3566.08C77.5757 4009.97 1240.3 3807.47 1495.6 3844.03" stroke="white" stroke-opacity="0.1" stroke-width="0.9876" stroke-miterlimit="10"/>
<path d="M983.637 284.359C1148.96 457.944 647.643 1274.16 750.589 1539.89C853.535 1805.61 1780.93 1421.31 1831.09 1738.65C1887.67 2090.07 881.931 2600.86 1167.79 3299.29C1349.77 3744.22 2541.25 3526.99 2791.27 3557.87" stroke="white" stroke-opacity="0.1" stroke-width="0.9928" stroke-miterlimit="10"/>
<path d="M-285.916 561.339C-117.947 737.694 -624.121 1562.03 -529.293 1830.68C-434.466 2099.32 510.875 1703.43 565.556 2019.95C626.73 2371.06 -407.522 2891.61 -119.554 3592.4C63.6265 4038.34 1283.89 3806.37 1528.63 3831.57" stroke="white" stroke-opacity="0.1" stroke-width="0.9979" stroke-miterlimit="10"/>
<path d="M-276.351 558.383C-105.732 737.508 -616.776 1569.92 -530.059 1841.53C-443.343 2113.14 519.946 1705.65 579.145 2021.34C644.923 2372.17 -417.853 2902.45 -127.772 3605.63C56.6111 4052.58 1305.71 3805.88 1545.13 3825.39" stroke="white" stroke-opacity="0.1" stroke-width="1.0031" stroke-miterlimit="10"/>
</svg>
