<svg width="190" height="189" viewBox="0 0 190 189" fill="none" xmlns="http://www.w3.org/2000/svg">
<path d="M99.275 0C79.6403 0 60.4465 6.21679 44.1208 17.8642C27.7951 29.5117 15.0708 46.0666 7.5569 65.4356C0.0430142 84.8045 -1.92296 106.118 1.90759 126.68C5.73813 147.242 15.1932 166.129 29.077 180.953C42.9609 195.778 60.65 205.873 79.9075 209.963C99.1649 214.053 119.126 211.954 137.266 203.931C155.406 195.908 170.911 182.322 181.819 164.89C192.728 147.459 198.55 126.965 198.55 106C198.55 77.8871 188.091 50.9255 169.473 31.0467C150.855 11.1678 125.604 0 99.275 0ZM99.275 185.5C84.549 185.5 70.1536 180.837 57.9094 172.102C45.6651 163.366 36.1219 150.95 30.4864 136.423C24.851 121.897 23.3765 105.912 26.2494 90.4903C29.1224 75.0688 36.2136 60.9033 46.6265 49.785C57.0394 38.6667 70.3063 31.0951 84.7494 28.0276C99.1924 24.96 114.163 26.5344 127.768 32.5516C141.373 38.5687 153.002 48.7585 161.183 61.8322C169.365 74.9059 173.731 90.2764 173.731 106C173.71 127.078 165.859 147.286 151.9 162.19C137.941 177.094 119.016 185.477 99.275 185.5Z" fill="url(#paint0_linear_10_796)"/>
<path d="M124.218 106H105.48C103.834 106 102.256 105.302 101.092 104.06C99.9287 102.817 99.275 101.132 99.275 99.375V79.3675C99.2758 77.6446 98.9586 75.9385 98.3415 74.3466C97.7244 72.7547 96.8195 71.3083 95.6785 70.0901C94.5376 68.8718 93.1829 67.9056 91.692 67.2467C90.2012 66.5878 88.6033 66.2491 86.9897 66.25H86.7415C85.128 66.2491 83.5301 66.5878 82.0392 67.2467C80.5483 67.9056 79.1937 68.8718 78.0527 70.0901C76.9117 71.3083 76.0068 72.7547 75.3897 74.3466C74.7726 75.9385 74.4554 77.6446 74.4562 79.3675V119.383C74.4554 121.105 74.7726 122.811 75.3897 124.403C76.0068 125.995 76.9117 127.442 78.0527 128.66C79.1937 129.878 80.5483 130.844 82.0392 131.503C83.5301 132.162 85.128 132.501 86.7415 132.5H124.218C125.831 132.501 127.429 132.162 128.92 131.503C130.411 130.844 131.766 129.878 132.907 128.66C134.048 127.442 134.953 125.995 135.57 124.403C136.187 122.811 136.504 121.105 136.503 119.383V119.118C136.504 117.395 136.187 115.689 135.57 114.097C134.953 112.505 134.048 111.058 132.907 109.84C131.766 108.622 130.411 107.656 128.92 106.997C127.429 106.338 125.831 105.999 124.218 106Z" fill="url(#paint1_linear_10_796)"/>
<defs>
<linearGradient id="paint0_linear_10_796" x1="36.1" y1="29" x2="176.217" y2="167.816" gradientUnits="userSpaceOnUse">
<stop stop-color="#414141"/>
<stop offset="0.728332" stop-color="#262626"/>
</linearGradient>
<linearGradient id="paint1_linear_10_796" x1="74.1" y1="66" x2="133.663" y2="136.011" gradientUnits="userSpaceOnUse">
<stop stop-color="#404040"/>
<stop offset="1" stop-color="#282828"/>
</linearGradient>
</defs>
</svg>
