<svg width="24" height="18" viewBox="0 0 24 18" fill="none" xmlns="http://www.w3.org/2000/svg">
<g clip-path="url(#clip0_166_4)">
<path d="M0 1.1875C0 0.462626 0.587626 -0.125 1.3125 -0.125H22.6875C23.4124 -0.125 24 0.462626 24 1.1875C24 1.91237 23.4124 2.5 22.6875 2.5H1.3125C0.587626 2.5 0 1.91237 0 1.1875Z" fill="white"/>
<path d="M0 9.0625C0 8.33763 0.587626 7.75 1.3125 7.75H22.6875C23.4124 7.75 24 8.33763 24 9.0625C24 9.78737 23.4124 10.375 22.6875 10.375H1.3125C0.587626 10.375 0 9.78737 0 9.0625Z" fill="white"/>
<path d="M0 16.9375C0 16.2126 0.587626 15.625 1.3125 15.625H22.6875C23.4124 15.625 24 16.2126 24 16.9375C24 17.6624 23.4124 18.25 22.6875 18.25H1.3125C0.587626 18.25 0 17.6624 0 16.9375Z" fill="white"/>
</g>
<defs>
<clipPath id="clip0_166_4">
<rect width="24" height="18" fill="white"/>
</clipPath>
</defs>
</svg>
