<svg width="174" height="190" viewBox="0 0 174 190" fill="none" xmlns="http://www.w3.org/2000/svg">
<path fill-rule="evenodd" clip-rule="evenodd" d="M162.913 76.0162C162.913 33.5542 130.971 0.584229 91.7042 0.584229C52.4376 0.584229 20.4954 33.5542 20.4954 74.0842C8.66455 80.3527 0.150024 91.8922 0.150024 105.584V126.584C0.150024 134.939 3.3653 142.951 9.08855 148.858C14.8118 154.766 22.5742 158.084 30.6681 158.084H40.8408C43.5387 158.084 46.1262 156.978 48.0339 155.009C49.9417 153.04 51.0134 150.369 51.0134 147.584V84.5842C51.0134 81.7995 49.9417 79.1287 48.0339 77.1596C46.1262 75.1905 43.5387 74.0842 40.8408 74.0842C40.8408 60.1604 46.1996 46.8068 55.7383 36.9611C65.277 27.1155 78.2144 21.5842 91.7042 21.5842C105.194 21.5842 118.131 27.1155 127.67 36.9611C137.209 46.8068 142.568 60.1604 142.568 74.0842C139.87 74.0842 137.282 75.1905 135.374 77.1596C133.467 79.1287 132.395 81.7995 132.395 84.5842V147.584C132.395 150.369 133.467 153.04 135.374 155.009C137.282 156.978 139.87 158.084 142.568 158.084V168.584H116.2C114.104 162.484 108.509 158.084 101.877 158.084H81.5315C77.4845 158.084 73.6033 159.744 70.7417 162.697C67.8801 165.651 66.2725 169.657 66.2725 173.834C66.2725 178.011 67.8801 182.017 70.7417 184.971C73.6033 187.925 77.4845 189.584 81.5315 189.584H142.568C147.964 189.584 153.138 187.372 156.954 183.433C160.769 179.495 162.913 174.154 162.913 168.584V156.163C168.851 154.009 173.996 150.008 177.64 144.711C181.283 139.414 183.246 133.081 183.258 126.584V105.584C183.247 99.0888 181.284 92.7569 177.64 87.4613C173.996 82.1656 168.851 78.1669 162.913 76.0162Z" fill="url(#paint0_linear_10_810)"/>
<defs>
<linearGradient id="paint0_linear_10_810" x1="33.0683" y1="41.1605" x2="153.626" y2="188.413" gradientUnits="userSpaceOnUse">
<stop stop-color="#3C3C3C"/>
<stop offset="1" stop-color="#262626"/>
</linearGradient>
</defs>
</svg>
