<svg width="124" height="184" viewBox="0 0 124 184" fill="none" xmlns="http://www.w3.org/2000/svg">
<path d="M114.251 65.2716L93.475 36.6266C91.2841 33.6032 87.9138 31.8339 84.347 31.8339H52.2402C48.6734 31.8339 45.3032 33.6032 43.1122 36.6266L22.3359 65.2716C23.7753 88.1864 34.0421 107.295 50.9511 115.019V115.012C56.2174 117.409 62.0272 118.75 68.2936 118.75C74.5601 118.75 80.3698 117.409 85.6362 115.006V115.012C102.545 107.295 112.806 88.1864 114.251 65.2716ZM50.9511 81.5C47.76 81.5 45.1702 78.7187 45.1702 75.2918C45.1702 71.8648 47.76 69.0835 50.9511 69.0835C54.1421 69.0835 56.7319 71.8648 56.7319 75.2918C56.7319 78.7187 54.1421 81.5 50.9511 81.5ZM85.6362 81.5C82.4451 81.5 79.8553 78.7187 79.8553 75.2918C79.8553 71.8648 82.4451 69.0835 85.6362 69.0835C88.8272 69.0835 91.417 71.8648 91.417 75.2918C91.417 78.7187 88.8272 81.5 85.6362 81.5ZM22.0468 55.5619V25.6256C22.0468 11.9115 32.4003 0.79248 45.1702 0.79248H91.417C104.187 0.79248 114.54 11.9115 114.54 25.6256V55.5619L98.0361 32.8148C94.7526 28.2765 89.7001 25.6256 84.347 25.6256H52.2344C46.8813 25.6256 41.8289 28.2765 38.5454 32.8148L22.0468 55.5619ZM136.005 171.986L134.051 162.332C132.484 153.1 126.328 145.694 118.13 143.061L90.7522 132.346L85.7807 136.965C80.919 141.503 74.6757 144.011 68.2011 144.011C61.7497 144.011 55.5295 141.522 50.6794 136.99L45.7541 132.42L18.6419 142.999C10.277 145.7 4.10305 153.106 2.54222 162.344L0.831086 172.402C-0.463825 180.025 4.98752 187.041 12.202 187.041H124.703C132.08 187.041 137.571 179.727 136.005 171.986ZM114.54 168.416C114.54 171.843 111.951 174.624 108.76 174.624H91.417C88.226 174.624 85.6362 171.843 85.6362 168.416V162.208C85.6362 158.781 88.226 155.999 91.417 155.999H108.76C111.951 155.999 114.54 158.781 114.54 162.208V168.416ZM68.2936 124.958C74.4965 124.958 80.2947 123.809 85.6362 121.736V128.888L81.9942 132.278C74.3751 139.386 62.085 139.405 54.4716 132.302L50.9511 129.037V121.742C56.2926 123.809 62.0908 124.958 68.2936 124.958ZM91.417 162.208H108.76V168.416H91.417V162.208Z" fill="url(#paint0_linear_10_804)"/>
<defs>
<linearGradient id="paint0_linear_10_804" x1="-34.65" y1="23.5842" x2="111.029" y2="179.159" gradientUnits="userSpaceOnUse">
<stop stop-color="#414141"/>
<stop offset="1" stop-color="#262626"/>
</linearGradient>
</defs>
</svg>
