<svg width="195" height="187" viewBox="0 0 195 187" fill="none" xmlns="http://www.w3.org/2000/svg">
<path d="M131.544 50.9442C117.032 41.5731 93.59 41.5731 79.164 50.9442C64.7381 60.3153 64.824 75.5494 79.3358 84.9205C93.8476 94.2916 117.29 94.2916 131.716 84.9205C146.142 75.5013 146.056 60.3153 131.544 50.9442ZM124.889 65.6977C123.644 66.1302 122.399 66.6108 121.154 67.0433C120.381 67.2836 119.909 67.3317 119.565 67.1394C119.393 66.9953 119.222 66.803 119.05 66.5147C118.234 65.0249 116.989 63.7274 115.315 62.6701C115.1 62.526 114.842 62.3818 114.585 62.2376C114.027 61.9012 113.511 61.6609 112.825 61.4687C110.42 60.844 108.273 61.8532 108.574 63.5352C108.703 64.4002 109.132 65.1691 109.647 65.9861C110.506 67.3317 111.451 68.6773 112.052 70.119C114.07 74.6363 109.69 79.1056 102.649 79.5381C100.116 79.6823 97.7116 79.3459 95.4791 78.5289C94.4916 78.1925 93.7617 78.1925 93.0318 78.7692C92.3019 79.2978 91.4862 79.7784 90.7133 80.259C90.0264 80.6915 89.2965 80.7395 88.6096 80.307C88.0944 80.0187 87.6221 79.6823 87.1069 79.394C86.7634 79.1537 86.4199 78.9614 86.0764 78.7212C85.3466 78.2406 85.4324 77.76 86.1194 77.2794C86.6775 76.895 87.2357 76.5586 87.7509 76.1741C88.996 75.3572 88.996 75.3091 87.9656 74.396C86.6775 73.2427 85.5183 72.0412 84.7884 70.6956C84.2303 69.6384 84.3591 69.3981 85.8618 68.8214C86.9781 68.437 88.0514 68.0045 89.1677 67.62C89.9835 67.3317 90.4557 67.2836 90.7992 67.4758C91.0139 67.62 91.1427 67.8122 91.3144 68.1486C92.0443 69.6865 93.2894 71.032 94.7921 72.3296C95.0497 72.5699 95.3503 72.7621 95.6079 72.9543C96.4236 73.4829 97.3682 73.8674 98.4415 74.1557C101.232 74.8766 103.722 73.6271 103.465 71.6568C103.379 70.984 103.078 70.4073 102.692 69.7826C101.747 68.1967 100.502 66.7069 99.8584 65.0249C98.8279 62.3337 99.3002 59.8828 102.606 57.9606C106.384 55.798 110.592 55.6538 115.057 56.9994C116.903 57.5761 116.86 57.5761 118.277 56.663C118.749 56.3266 119.222 56.0383 119.694 55.7499C120.767 55.0771 121.154 55.0771 122.227 55.7499C122.571 55.9422 122.871 56.1824 123.215 56.3747C125.49 57.8164 125.49 57.8164 123.258 59.3062C121.669 60.3153 121.669 60.3153 123 61.5168C124.03 62.4298 124.846 63.391 125.447 64.4482C125.919 64.9769 125.748 65.4094 124.889 65.6977ZM150.907 97.3192C146.914 99.9143 140.431 99.9143 136.395 97.3192C132.403 94.7241 132.36 90.4951 136.353 87.9C140.345 85.305 146.828 85.305 150.864 87.9C154.9 90.4951 154.943 94.7241 150.907 97.3192ZM74.4842 47.9167C70.4913 50.5117 64.0082 50.5117 59.9724 47.9167C55.9366 45.3216 55.9366 41.0926 59.9295 38.4975C63.9224 35.9024 70.4054 35.9024 74.4413 38.4975C78.4342 41.0926 78.4771 45.3216 74.4842 47.9167ZM205.219 77.1833L90.7992 3.22367C84.1873 -1.0534 73.4538 -1.0534 66.8848 3.22367L5.53171 43.111C-1.03724 47.388 -0.994304 54.3563 5.61758 58.6334L120.037 132.593C126.649 136.87 137.383 136.87 143.952 132.593L205.262 92.7057C211.874 88.4287 211.831 81.4604 205.219 77.1833ZM145.197 118.512C144.467 117.743 143.608 117.023 142.578 116.35C135.88 112.025 125.018 112.025 118.363 116.35C117.848 116.686 117.418 117.023 116.946 117.407L28.1152 59.9789C28.9738 59.5945 29.7896 59.162 30.5624 58.6814C37.2172 54.3563 37.1743 47.34 30.4765 43.0148C29.7467 42.5343 28.9738 42.1018 28.1581 41.7654L64.781 17.9291C65.3392 18.4577 65.9832 18.9383 66.7131 19.4189C73.4108 23.744 84.2732 23.744 90.928 19.4189C91.7008 18.9383 92.3449 18.4097 92.9459 17.833L182.078 75.4052C180.875 75.8858 179.802 76.4144 178.772 77.0872C172.117 81.4124 172.117 88.4767 178.857 92.8018C179.888 93.4746 181.047 94.0033 182.249 94.4838L145.197 118.512ZM2.61218 73.4349C5.53171 71.7529 10.0398 71.9932 12.8305 73.8194L132.445 151.095L197.105 108.997C199.895 107.171 204.489 107.171 207.323 108.997C210.157 110.823 210.157 113.803 207.366 115.629L138.628 160.322C135.279 162.533 129.784 162.533 126.392 160.322L123.987 158.784L122.313 157.679L2.39751 80.2109C-0.522026 78.3367 -0.479092 75.213 2.61218 73.4349ZM207.452 139.802L138.714 184.495C135.365 186.705 129.869 186.705 126.478 184.495L124.116 182.957L122.399 181.851L2.48337 104.384C-0.436158 102.509 -0.350289 99.3857 2.74098 97.6075C5.61758 95.9256 10.1686 96.1658 12.9593 97.992L132.531 175.268L197.19 133.218C200.024 131.392 204.575 131.392 207.409 133.218C210.242 134.996 210.285 137.975 207.452 139.802Z" fill="url(#paint0_linear_10_817)"/>
<defs>
<linearGradient id="paint0_linear_10_817" x1="18.3" y1="42.5842" x2="180.191" y2="164.496" gradientUnits="userSpaceOnUse">
<stop stop-color="white"/>
<stop offset="1" stop-color="white"/>
</linearGradient>
</defs>
</svg>
